<svg id="Layer_1" data-name="Layer 1" xmlns="http://www.w3.org/2000/svg" viewBox="0 0 235.63 71.14"><defs><style>.cls-1{fill:#fff}</style></defs><title>ao-wordmark-white</title><path class="cls-1" d="M.13 22.11q-1.35 3.45 10.8 10.2l.7-1.3c-10.8-6.1-10.1-8.3-10.1-8.4.3-.8 3.6-1.7 13.7.7l.3-1.5c-9.3-2.2-14.5-2.1-15.4.3M28.03.01c-1.3.2-2.2 1.6-2.8 4.3a49.83 49.83 0 0 0-.9 10.8l1.5-.1c0-13 2.3-13.5 2.4-13.5.8-.1 3.2 2.3 6 12.3l1.5-.2c-2.6-9.2-5.3-13.9-7.7-13.6M54.03 39.51c11.5 6.8 10.7 9 10.7 9.1-.3.8-3.8 1.6-14.2-1.1l-.4 1.5c6.6 1.7 14.7 3.2 16 .3 1-2.3-2.8-6-11.3-11zM39.63 55.91c.1 13.3-2.3 13.8-2.4 13.8-.9.1-3.3-2.4-6.3-12.8l-1.4.4c1.9 6.6 4.8 14.3 8 13.8 2.5-.4 3.7-5.5 3.7-15.3zM35.23 35.61a2.31 2.31 0 0 0-2.3-2.5 2.37 2.37 0 0 0-2.5 2.3 2.31 2.31 0 0 0 2.3 2.5 2.42 2.42 0 0 0 2.5-2.3l-2.4-.1z"/><path class="cls-1" d="M10.33 34.41a22.4 22.4 0 0 0 21.1 23.5 22.35 22.35 0 0 0 23.5-21.1v-.1a22.42 22.42 0 0 0-21.1-23.5 22.64 22.64 0 0 0-23.5 21.2m21.5 15.3a14.37 14.37 0 0 1-9.7-4.6 14.05 14.05 0 1 1 24.5-8.6v.1a14.06 14.06 0 0 1-14.8 13.1"/><path class="cls-1" d="M29.03 29.71c-14 10.7-24.2 21.2-24.8 25.5a1.93 1.93 0 0 0 .4 1.7 2.19 2.19 0 0 0 1.5.8c4.3.6 17.1-6.5 31.1-17.1 11.5-8.7 27.4-23.2 24.4-27.2a2.19 2.19 0 0 0-1.5-.8c-4.3-.6-17.1 6.5-31.1 17.1m-22.7 26.5a.76.76 0 0 1-.5-.2 1.08 1.08 0 0 1-.1-.6c.4-3.3 9.1-12.9 24.2-24.5s26.8-17.3 30-16.9a.76.76 0 0 1 .5.2c.4.5-.3 3-5.5 8.7a163 163 0 0 1-18.6 16.4c-15.1 11.6-26.7 17.3-30 16.9"/><path class="cls-1" d="M20.43 16.91a22.41 22.41 0 0 0-6.4 31l6.9-4.5a14 14 0 0 1 22.8-16.2l6.6-5a22.3 22.3 0 0 0-29.9-5.3M78.23 37.11l-1-2.9h-5.9l-1 2.9h-3.4l6-16.6h2.5l6.1 16.6h-3.3zm-3.9-11.7l-2.1 6h4.1zM88.33 23.41v13.7h-3.2v-13.7h-4.3v-2.9h11.9v2.9h-4.4zM104.83 35.51a5.87 5.87 0 0 1-4.4 1.7 6.27 6.27 0 0 1-4.5-1.7c-1.7-1.7-1.7-3.5-1.7-6.7s0-5 1.7-6.7a6 6 0 0 1 4.5-1.7 5.87 5.87 0 0 1 4.4 1.7c1.7 1.7 1.7 3.5 1.7 6.7s-.1 5-1.7 6.7zm-2.4-11.3a2.93 2.93 0 0 0-2.1-.9 2.58 2.58 0 0 0-2.1.9c-.6.7-.8 1.5-.8 4.7s.2 3.9.8 4.6a2.9 2.9 0 0 0 4.2 0c.6-.7.8-1.5.8-4.6s-.2-4-.8-4.7zM121.23 37.11v-9.7l-3.2 6.3h-2.2l-3.2-6.3v9.7h-3.2v-16.6h3.2l4.3 9 4.3-9h3.2v16.6h-3.2zM128.33 37.11v-16.6h3.2v16.6h-3.2zM141.03 37.31a5.87 5.87 0 0 1-4.4-1.7c-1.7-1.7-1.7-3.5-1.7-6.7s0-5 1.7-6.7a6.29 6.29 0 0 1 10.5 3.5h-3.3a2.73 2.73 0 0 0-2.8-2.4 2.58 2.58 0 0 0-2.1.9c-.6.7-.8 1.5-.8 4.7s.2 4 .8 4.7a2.93 2.93 0 0 0 2.1.9 2.73 2.73 0 0 0 2.8-2.4h3.3a5.87 5.87 0 0 1-6.1 5.2zM165.33 35.51a6.54 6.54 0 0 1-8.8 0c-1.7-1.7-1.7-3.5-1.7-6.7s0-5 1.7-6.7a6.54 6.54 0 0 1 8.8 0c1.7 1.7 1.7 3.5 1.7 6.7s-.1 5-1.7 6.7zm-2.4-11.3a2.93 2.93 0 0 0-2.1-.9 2.58 2.58 0 0 0-2.1.9c-.6.7-.8 1.5-.8 4.7s.2 3.9.8 4.6a2.9 2.9 0 0 0 4.2 0c.6-.7.8-1.5.8-4.6s-.2-4-.8-4.7zM176.93 37.11h-6.9v-16.6h6.7c3.2 0 5.1 1.8 5.1 4.7a3.89 3.89 0 0 1-2 3.4 3.87 3.87 0 0 1 2.3 3.7c-.1 3.1-2.3 4.8-5.2 4.8zm-.6-13.7h-3.2v3.8h3.2a1.91 1.91 0 1 0 0-3.8zm.3 6.7h-3.4v4.1h3.4a2 2 0 0 0 2.2-2 2.08 2.08 0 0 0-2.2-2.1zM187.23 37.31a5.73 5.73 0 0 1-4.3-1.7l2.1-2.1a2.6 2.6 0 0 0 2.1.9c1.6 0 2.6-.9 2.6-2.8v-11h3.2v11.1c.2 3.6-2.6 5.6-5.7 5.6zM196.73 37.11v-16.6h10.9v2.9h-7.7v3.9h6.5v2.9h-6.5v4h7.7v2.9h-10.9zM216.23 37.31a6.27 6.27 0 0 1-4.5-1.7c-1.7-1.7-1.7-3.5-1.7-6.7s0-5 1.7-6.7a6 6 0 0 1 4.5-1.7 5.87 5.87 0 0 1 6.1 5.2h-3.3a2.73 2.73 0 0 0-2.8-2.4 2.58 2.58 0 0 0-2.1.9c-.6.7-.8 1.5-.8 4.7s.2 4 .8 4.7a2.93 2.93 0 0 0 2.1.9 2.73 2.73 0 0 0 2.8-2.4h3.3a5.87 5.87 0 0 1-6.1 5.2zM231.23 23.41v13.7h-3.2v-13.7h-4.3v-2.9h11.9v2.9h-4.4z"/></svg>