<svg width="38px" height="41px" viewBox="258 141 38 41" version="1.1" xmlns="http://www.w3.org/2000/svg" xmlns:xlink="http://www.w3.org/1999/xlink">
    <desc>Atomic Object</desc>
    <defs></defs>
    <path d="M294.954,169.247 C294.756,169.697 292.92,170.11 287.451,168.605 C288.335,167.284 288.977,165.784 289.311,164.163 C295.423,167.96 294.974,169.197 294.954,169.247 Z M284.877,162.141 L284.874,162.188 C284.56,166.546 280.75,169.843 276.385,169.527 C275.297,169.449 274.261,169.151 273.322,168.666 C275.282,167.424 277.369,166.001 279.511,164.426 C281.174,163.204 283.004,161.777 284.782,160.291 C284.882,160.891 284.921,161.508 284.877,162.141 Z M279.242,180.891 C278.758,180.957 277.47,179.599 275.954,174.179 L276.05,174.191 C277.669,174.308 279.238,174.109 280.702,173.653 C280.559,180.643 279.295,180.887 279.242,180.891 Z M261.884,172.965 C261.78,172.951 261.644,172.913 261.582,172.838 C261.525,172.758 261.532,172.617 261.546,172.51 C261.693,171.56 263.109,169.649 265.635,167.147 C266.109,168.112 266.697,169.029 267.418,169.863 C267.666,170.149 267.928,170.418 268.196,170.678 C265.067,172.334 262.831,173.111 261.884,172.965 Z M269.042,161.037 C269.347,156.666 273.148,153.366 277.516,153.672 C278.559,153.745 279.539,154.022 280.426,154.454 C278.677,155.585 276.839,156.851 274.957,158.236 C272.84,159.793 270.874,161.344 269.119,162.828 C269.029,162.242 268.998,161.644 269.042,161.037 Z M259.523,153.938 C259.7,153.505 261.437,153.054 266.664,154.306 C265.778,155.553 265.115,156.973 264.729,158.51 C259.112,155.161 259.503,153.989 259.523,153.938 Z M274.786,142.277 C275.255,142.22 276.511,143.573 277.987,149.017 L277.842,149.004 C276.248,148.892 274.702,149.087 273.259,149.532 C273.486,142.511 274.734,142.282 274.786,142.277 Z M270.958,166.804 C270.183,165.909 269.638,164.875 269.326,163.772 C271.097,162.256 273.143,160.625 275.464,158.92 C277.528,157.402 279.472,156.074 281.267,154.927 C282.853,155.956 284.034,157.533 284.571,159.369 C282.862,160.807 280.989,162.283 279.007,163.741 C276.671,165.457 274.491,166.93 272.505,168.174 C271.94,167.789 271.417,167.335 270.958,166.804 Z M292.586,149.693 C292.69,149.707 292.827,149.743 292.886,149.825 C293.098,150.116 292.708,151.508 289.667,154.667 C289.24,155.112 288.771,155.573 288.285,156.041 C287.605,154.658 286.679,153.412 285.558,152.366 C289.064,150.443 291.567,149.539 292.586,149.693 Z M289.469,163.257 L289.464,163.265 C289.496,163.02 289.523,162.773 289.542,162.523 L289.546,162.467 C289.684,160.489 289.355,158.585 288.654,156.861 C292.095,153.598 294.497,150.579 293.571,149.321 C293.387,149.066 293.1,148.907 292.717,148.848 C291.365,148.645 288.511,149.745 284.87,151.769 C283.192,150.413 281.155,149.476 278.906,149.127 C277.521,143.947 276.073,141.266 274.687,141.428 C273.959,141.515 273.418,142.29 273.038,143.802 C272.686,145.193 272.482,147.276 272.408,149.827 C270.388,150.613 268.609,151.907 267.239,153.562 C262.125,152.299 259.266,152.318 258.733,153.617 C258.221,154.874 260.173,156.817 264.539,159.386 C264.463,159.819 264.407,160.259 264.376,160.707 C264.236,162.648 264.553,164.554 265.262,166.313 C262.575,168.938 260.899,171.116 260.707,172.383 C260.648,172.77 260.71,173.091 260.897,173.339 C261.081,173.594 261.368,173.753 261.753,173.81 C263.014,174.001 265.585,173.052 268.878,171.282 C270.637,172.757 272.75,173.721 275.039,174.069 C276.037,177.747 277.582,181.962 279.348,181.738 C280.735,181.563 281.477,178.738 281.56,173.354 C283.679,172.521 285.531,171.127 286.92,169.344 C290.594,170.371 295.016,171.225 295.736,169.593 C296.303,168.294 294.198,166.16 289.469,163.257 L289.469,163.257 Z" id="Fill-236" stroke="none" fill="#FFFFFF" fill-rule="evenodd"></path>
</svg>